<svg width="50" height="71" xmlns="http://www.w3.org/2000/svg" xmlns:xlink="http://www.w3.org/1999/xlink" xmlns:svgjs="http://svgjs.com/svgjs" viewBox="276 1486 50 71"><svg width="38" height="36" xmlns="http://www.w3.org/2000/svg" xmlns:xlink="http://www.w3.org/1999/xlink" xmlns:svgjs="http://svgjs.com/svgjs" viewBox="0.741 0 36.518 36" fill="none" stroke-miterlimit="100" stroke="#fff" stroke-width="3" x="278" y="1486"><svg xmlns="http://www.w3.org/2000/svg" xmlns:xlink="http://www.w3.org/1999/xlink" width="38" height="36" viewBox="1.838 2 35.508 35.004"><path paint-order="stroke fill markers" d="M7.047 23.636c2.311-2.278 6.058-2.278 8.37 0a5.776 5.776 0 0 1 0 8.25c-2.312 2.279-6.059 2.279-8.37 0a5.776 5.776 0 0 1 0-8.25zM23.786 7.135c2.31-2.279 6.058-2.279 8.369 0a5.776 5.776 0 0 1 0 8.25c-2.311 2.279-6.058 2.279-8.37 0a5.776 5.776 0 0 1 0-8.25zm-10.1 24.035c0-3.222 2.65-5.834 5.918-5.834 3.269 0 5.918 2.612 5.918 5.834 0 3.222-2.65 5.834-5.918 5.834-3.268 0-5.917-2.612-5.917-5.834zm0-23.336c0-3.222 2.65-5.834 5.918-5.834 3.269 0 5.918 2.612 5.918 5.834 0 3.222-2.65 5.834-5.918 5.834-3.268 0-5.917-2.612-5.917-5.834zm10.1 24.035a5.776 5.776 0 0 1 0-8.25c2.31-2.278 6.058-2.278 8.369 0a5.776 5.776 0 0 1 0 8.25c-2.311 2.279-6.058 2.279-8.37 0zM7.047 15.37a5.776 5.776 0 0 1 0-8.251c2.311-2.279 6.058-2.279 8.37 0a5.776 5.776 0 0 1 0 8.25c-2.312 2.278-6.059 2.278-8.37 0zm24.381 9.955c-3.268 0-5.918-2.612-5.918-5.834 0-3.222 2.65-5.834 5.918-5.834 3.269 0 5.918 2.612 5.918 5.834 0 3.222-2.65 5.834-5.918 5.834zm-23.672 0c-3.268 0-5.918-2.612-5.918-5.834 0-3.222 2.65-5.834 5.918-5.834 3.269 0 5.918 2.612 5.918 5.834 0 3.222-2.65 5.834-5.918 5.834z"/></svg></svg><svg width="4" height="38" xmlns="http://www.w3.org/2000/svg" xmlns:xlink="http://www.w3.org/1999/xlink" xmlns:svgjs="http://svgjs.com/svgjs" viewBox="0.93 0 2.141 38" fill="#fff" x="295" y="1519"><svg xmlns="http://www.w3.org/2000/svg" xmlns:xlink="http://www.w3.org/1999/xlink" width="4" height="38" viewBox="1.914 1.325 2.066 36.675"><path paint-order="stroke fill markers" fill-rule="evenodd" d="M1.914 1.325H3.98V38H1.914V1.325z"/></svg></svg><svg width="18" height="18" xmlns="http://www.w3.org/2000/svg" xmlns:xlink="http://www.w3.org/1999/xlink" xmlns:svgjs="http://svgjs.com/svgjs" viewBox="0 0.121 18 17.758" fill="none" stroke-miterlimit="100" stroke="#fff" stroke-width="3" x="276" y="1522"><svg xmlns="http://www.w3.org/2000/svg" xmlns:xlink="http://www.w3.org/1999/xlink" width="18" height="18" viewBox="1.998 1.398 16.321 16.102"><path paint-order="stroke fill markers" d="M1.998 1.398s.72 10.51 3.837 13.585c3.117 3.075 7.867 3.374 10.61.668 2.743-2.706 2.44-7.392-.677-10.467S1.998 1.398 1.998 1.398z"/></svg></svg><svg width="24" height="25" xmlns="http://www.w3.org/2000/svg" xmlns:xlink="http://www.w3.org/1999/xlink" xmlns:svgjs="http://svgjs.com/svgjs" viewBox="0 0.603 24 23.794" fill="none" stroke-miterlimit="100" stroke="#fff" stroke-width="3" x="302" y="1515"><svg xmlns="http://www.w3.org/2000/svg" width="24" height="25" viewBox="2.714 1.947 22.282 22.09"><path paint-order="stroke fill markers" d="M24.996 1.947s-.984 14.419-5.24 18.638c-4.254 4.218-10.74 4.629-14.484.916-3.744-3.712-3.33-10.141.925-14.36 4.255-4.218 18.799-5.194 18.799-5.194z"/></svg></svg></svg>