<svg width="71" height="71" xmlns="http://www.w3.org/2000/svg" xmlns:xlink="http://www.w3.org/1999/xlink" xmlns:svgjs="http://svgjs.com/svgjs" viewBox="702 1489 71 71"><svg width="9" height="9" xmlns="http://www.w3.org/2000/svg" xmlns:xlink="http://www.w3.org/1999/xlink" xmlns:svgjs="http://svgjs.com/svgjs" fill="none" stroke-miterlimit="100" stroke="#fff" stroke-width="3" x="733" y="1520"><svg xmlns="http://www.w3.org/2000/svg" xmlns:xlink="http://www.w3.org/1999/xlink" width="9" height="9" viewBox="1.521 1.5 7 7"><path paint-order="stroke fill markers" d="M5.021 1.5a3.5 3.5 0 1 1 0 7 3.5 3.5 0 0 1 0-7z"/></svg></svg><svg width="20" height="26" xmlns="http://www.w3.org/2000/svg" xmlns:xlink="http://www.w3.org/1999/xlink" xmlns:svgjs="http://svgjs.com/svgjs" viewBox="0.12 0 19.76 26" fill="none" stroke-miterlimit="100" stroke="#fff" stroke-width="3" x="719" y="1500"><svg xmlns="http://www.w3.org/2000/svg" xmlns:xlink="http://www.w3.org/1999/xlink" width="20" height="26" viewBox="2 2 19 25"><path paint-order="stroke fill markers" d="M2 27v-2h19v2H2zm19 0h-2V2h2v25z"/></svg></svg><svg width="71" height="71" xmlns="http://www.w3.org/2000/svg" xmlns:xlink="http://www.w3.org/1999/xlink" xmlns:svgjs="http://svgjs.com/svgjs" fill="none" stroke-miterlimit="100" stroke="#fff" stroke-width="3" x="702" y="1489"><svg xmlns="http://www.w3.org/2000/svg" xmlns:xlink="http://www.w3.org/1999/xlink" width="71" height="71" viewBox="2 2 70 70"><path paint-order="stroke fill markers" d="M36 2h2v9h-2V2zm0 61h2v9h-2v-9zM2 38v-2h9v2H2zm61 0v-2h9v2h-9z"/></svg></svg><svg width="65" height="65" xmlns="http://www.w3.org/2000/svg" xmlns:xlink="http://www.w3.org/1999/xlink" xmlns:svgjs="http://svgjs.com/svgjs" fill="none" stroke-miterlimit="100" stroke="#fff" stroke-width="3" x="705" y="1492"><svg xmlns="http://www.w3.org/2000/svg" width="65" height="65" viewBox="1.422 1.381 63 63"><path paint-order="stroke fill markers" d="M32.921 1.381a1.4 1.4 0 1 1 0 2.8 1.4 1.4 0 0 1 0-2.8zm0 60.2a1.4 1.4 0 1 1 0 2.8 1.4 1.4 0 0 1 0-2.8zm8.155-59.124a1.4 1.4 0 1 1-.724 2.705 1.4 1.4 0 0 1 .724-2.705zm-15.58 58.149a1.4 1.4 0 1 1-.726 2.704 1.4 1.4 0 0 1 .725-2.704zM48.674 5.607a1.4 1.4 0 1 1-1.4 2.425 1.4 1.4 0 0 1 1.4-2.425zm-30.1 52.135a1.4 1.4 0 1 1-1.4 2.425 1.4 1.4 0 0 1 1.4-2.425zm36.624-47.126a1.4 1.4 0 1 1-1.98 1.98 1.4 1.4 0 0 1 1.98-1.98zM12.631 53.184a1.4 1.4 0 1 1-1.98 1.98 1.4 1.4 0 0 1 1.98-1.98zm47.574-36.04a1.4 1.4 0 1 1-2.425 1.4 1.4 1.4 0 0 1 2.425-1.4zM8.07 47.243a1.4 1.4 0 1 1-2.426 1.4 1.4 1.4 0 0 1 2.426-1.4zm55.28-22.5a1.4 1.4 0 1 1-2.704.724 1.4 1.4 0 0 1 2.704-.724zM5.202 40.324a1.4 1.4 0 1 1-2.705.725 1.4 1.4 0 0 1 2.705-.724zm59.22-7.425a1.4 1.4 0 1 1-2.8 0 1.4 1.4 0 0 1 2.8 0zm-60.2 0a1.4 1.4 0 1 1-2.8 0 1.4 1.4 0 0 1 2.8 0zm59.124 8.155a1.4 1.4 0 1 1-2.704-.724 1.4 1.4 0 0 1 2.704.724zM5.197 25.474a1.4 1.4 0 1 1-2.705-.726 1.4 1.4 0 0 1 2.705.725zm54.999 23.179a1.4 1.4 0 1 1-2.425-1.4 1.4 1.4 0 0 1 2.425 1.4zM8.06 18.553a1.4 1.4 0 1 1-2.425-1.4 1.4 1.4 0 0 1 2.425 1.4zm47.126 36.624a1.4 1.4 0 1 1-1.98-1.98 1.4 1.4 0 0 1 1.98 1.98zM12.619 12.609a1.4 1.4 0 1 1-1.98-1.98 1.4 1.4 0 0 1 1.98 1.98zm36.04 47.574a1.4 1.4 0 1 1-1.4-2.425 1.4 1.4 0 0 1 1.4 2.425zM18.56 8.048a1.4 1.4 0 1 1-1.4-2.425 1.4 1.4 0 0 1 1.4 2.425zm22.5 55.28a1.4 1.4 0 1 1-.724-2.704 1.4 1.4 0 0 1 .724 2.704zM25.48 5.18a1.4 1.4 0 1 1-.725-2.705 1.4 1.4 0 0 1 .724 2.705z"/></svg></svg></svg>