<svg width="59" height="73" xmlns="http://www.w3.org/2000/svg" xmlns:xlink="http://www.w3.org/1999/xlink" xmlns:svgjs="http://svgjs.com/svgjs" viewBox="269 1640 59 73">
  <svg width="44" height="39" xmlns="http://www.w3.org/2000/svg" xmlns:xlink="http://www.w3.org/1999/xlink" xmlns:svgjs="http://svgjs.com/svgjs" viewBox="0 0.519 44 37.962" fill="none" stroke-miterlimit="100" stroke="#fff" stroke-width="3" x="276" y="1646">
    <svg xmlns="http://www.w3.org/2000/svg" xmlns:xlink="http://www.w3.org/1999/xlink" width="44" height="39" viewBox="1.342 1.613 42.582 36.739">
      <path paint-order="stroke fill markers" d="M2.81 38.352v-1.47h28.633v1.47H2.81zm8.81-16.165v-1.47h25.696v1.47H11.62zM27.772 8.96V7.49h16.152v1.47H27.772zm.734-.735h-1.468V1.613h1.468v6.613zM12.354 21.452h-1.468V7.49h1.468v13.96zM2.81 37.617H1.342V18.513H2.81v19.104z" />
    </svg>
  </svg>
  <svg width="6" height="20" xmlns="http://www.w3.org/2000/svg" xmlns:xlink="http://www.w3.org/1999/xlink" xmlns:svgjs="http://svgjs.com/svgjs" viewBox="0.766 0 4.468 20" fill="none" stroke-miterlimit="100" stroke="#fff" stroke-width="3" x="273" y="1693">
    <svg xmlns="http://www.w3.org/2000/svg" xmlns:xlink="http://www.w3.org/1999/xlink" width="6" height="20" viewBox="3.56 1.639 3.782 16.927">
      <path paint-order="stroke fill markers" d="M7.342 1.639S1.409 6.773 4.405 16.334c2.996 9.56 2.937-14.695 2.937-14.695" />
    </svg>
  </svg>
  <svg width="59" height="60" xmlns="http://www.w3.org/2000/svg" xmlns:xlink="http://www.w3.org/1999/xlink" xmlns:svgjs="http://svgjs.com/svgjs" viewBox="0 0.483 59 59.034" fill="none" stroke-miterlimit="100" stroke="#fff" stroke-width="3" x="269" y="1640">
    <svg xmlns="http://www.w3.org/2000/svg" xmlns:xlink="http://www.w3.org/1999/xlink" width="59" height="60" viewBox="3.991 1.999 58.01 58.043">
      <path paint-order="stroke fill markers" d="M11.285 52.744c-9.726-9.731-9.726-25.509 0-35.24C26.774 2.006 62 2 62 2s-.007 35.246-15.496 50.745c-9.726 9.73-25.494 9.73-35.22 0z" />
    </svg>
  </svg>
  <svg width="59" height="60" xmlns="http://www.w3.org/2000/svg" xmlns:xlink="http://www.w3.org/1999/xlink" xmlns:svgjs="http://svgjs.com/svgjs" viewBox="0 0.474 59 59.052" fill="none" stroke-miterlimit="100" stroke="#fff" stroke-width="3" x="269" y="1642">
    <svg xmlns="http://www.w3.org/2000/svg" width="59" height="60" viewBox="3.997 1.204 58.002 58.053">
      <path paint-order="stroke fill markers" d="M16.732 41.005c3.792-15.445 14.396-27.424 27.826-33.52-10.88 6.611-19.245 17.37-22.522 30.718a49.743 49.743 0 0 0-.814 19.844c8.613 2.787 18.442.763 25.282-6.084C61.991 36.461 62 1.204 62 1.204s-35.222.008-50.709 15.51c-9.724 9.734-9.724 25.515 0 35.25a24.978 24.978 0 0 0 4.05 3.282 49.89 49.89 0 0 1 1.392-14.24z" />
    </svg>
  </svg>
</svg>