<svg width="61" height="65" xmlns="http://www.w3.org/2000/svg" xmlns:xlink="http://www.w3.org/1999/xlink" xmlns:svgjs="http://svgjs.com/svgjs" viewBox="708 1641 61 65">
  <svg width="61" height="61" xmlns="http://www.w3.org/2000/svg" xmlns:xlink="http://www.w3.org/1999/xlink" xmlns:svgjs="http://svgjs.com/svgjs" viewBox="0 0.449 61 60.102" fill="none" stroke-miterlimit="100" stroke="#fff" stroke-width="3" x="708" y="1645">
    <svg xmlns="http://www.w3.org/2000/svg" xmlns:xlink="http://www.w3.org/1999/xlink" width="61" height="61" viewBox="1.992 1.896 59.992 59.109">
      <path paint-order="stroke fill markers" d="M42.123 3.932l17.812 17.703a6.924 6.924 0 0 1 0 9.834L32.722 58.515a7.028 7.028 0 0 1-9.895 0L5.015 40.812a6.924 6.924 0 0 1 0-9.834L32.227 3.932a7.028 7.028 0 0 1 9.896 0zM33.1 37.178l.156 16.864c.036 3.88-3.1 6.998-7.005 6.962L9.282 60.85c-3.904-.035-7.099-3.21-7.134-7.09l-.156-16.865c-.036-3.88 3.1-6.998 7.005-6.962l16.968.155c3.905.035 7.1 3.21 7.135 7.09zm-14.273 6.588a4.847 4.847 0 0 1 0 6.884 4.92 4.92 0 0 1-6.926 0 4.847 4.847 0 0 1 0-6.884 4.92 4.92 0 0 1 6.926 0z" />
    </svg>
  </svg>
  <svg width="15" height="58" xmlns="http://www.w3.org/2000/svg" xmlns:xlink="http://www.w3.org/1999/xlink" xmlns:svgjs="http://svgjs.com/svgjs" viewBox="0.638 0 13.724 58" fill="none" stroke-miterlimit="100" stroke="#fff" stroke-width="3" x="712" y="1641">
    <svg xmlns="http://www.w3.org/2000/svg" width="15" height="58" viewBox="1.023 2 13.329 56.329">
      <path paint-order="stroke fill markers" d="M12.219 58.329S1.023 48.245 1.023 27.035 5.921 2 8.02 2c2.1 0 5.948 4.172 6.298 21.558.35 17.385-2.1 34.77-2.1 34.77" />
    </svg>
  </svg>
</svg>